<svg width="22" height="22" viewBox="0 0 22 22" fill="none" xmlns="http://www.w3.org/2000/svg">
<path fill-rule="evenodd" clip-rule="evenodd" d="M11.0001 1.83398C16.0628 1.83398 20.1668 5.93802 20.1668 11.0006C20.1668 16.0632 16.0628 20.1673 11.0001 20.1673C5.93757 20.1673 1.8335 16.0633 1.8335 11.0006C1.8335 5.93802 5.93757 1.83398 11.0001 1.83398ZM11.9188 10.084H10.0855V15.584H11.9188V10.084ZM11.0095 6.18814C10.3411 6.18814 9.85632 6.67025 9.85632 7.32127C9.85632 7.99863 10.3284 8.47983 11.0095 8.47983C11.6641 8.47983 12.148 7.99858 12.148 7.33398C12.148 6.67029 11.6641 6.18814 11.0095 6.18814Z" fill="white"/>
</svg>
