<svg width="16" height="16" viewBox="0 0 16 16" fill="none" xmlns="http://www.w3.org/2000/svg">
<path fill-rule="evenodd" clip-rule="evenodd" d="M11.2909 9.58629C11.0846 9.79337 10.8197 9.93219 10.532 9.984L7.10347 10.6011C6.87831 10.6419 6.64665 10.628 6.42799 10.5605C6.20934 10.4931 6.01009 10.3741 5.847 10.2136C5.68392 10.0531 5.56178 9.85573 5.49086 9.63817C5.41994 9.42062 5.40231 9.18921 5.43947 8.96343L6.0109 5.48914C6.0594 5.19331 6.19974 4.92023 6.41204 4.70857L11.1423 5.59577e-07H2.85661C2.40196 5.59577e-07 1.96592 0.180612 1.64443 0.502103C1.32294 0.823594 1.14233 1.25963 1.14233 1.71429V11.9074L0.0291841 15.248C-0.00308647 15.3451 -0.00871232 15.449 0.0128937 15.549C0.0344998 15.649 0.0825457 15.7413 0.152016 15.8164C0.221487 15.8915 0.309836 15.9465 0.407841 15.9758C0.505846 16.0051 0.609915 16.0075 0.709184 15.9829L5.21204 14.8571H14.2852C14.7398 14.8571 15.1759 14.6765 15.4974 14.355C15.8189 14.0335 15.9995 13.5975 15.9995 13.1429V4.85714L11.2909 9.58629ZM14.0783 0.0880006C13.8685 0.00052183 13.6373 -0.0223901 13.4144 0.022194C13.1915 0.0667782 12.9869 0.176833 12.8269 0.338286L7.42118 5.72114L6.84976 9.19543L10.2783 8.57829L15.6612 3.17257C15.7683 3.06633 15.8533 2.93993 15.9113 2.80066C15.9694 2.66139 15.9992 2.51201 15.9992 2.36114C15.9992 2.21027 15.9694 2.06089 15.9113 1.92163C15.8533 1.78236 15.7683 1.65596 15.6612 1.54971L14.4498 0.338286C14.3438 0.230766 14.2175 0.145311 14.0783 0.0868577" fill="#E6E6E6"/>
</svg>
