<svg width="20" height="20" viewBox="0 0 20 20" fill="none" xmlns="http://www.w3.org/2000/svg">
<path d="M9.99992 1.66699C11.105 1.66699 12.1648 2.10598 12.9462 2.88738C13.7276 3.66878 14.1666 4.72859 14.1666 5.83366V8.33366C14.8296 8.33366 15.4655 8.59705 15.9344 9.06589C16.4032 9.53473 16.6666 10.1706 16.6666 10.8337V15.8337C16.6666 16.4967 16.4032 17.1326 15.9344 17.6014C15.4655 18.0703 14.8296 18.3337 14.1666 18.3337H5.83325C5.17021 18.3337 4.53433 18.0703 4.06549 17.6014C3.59664 17.1326 3.33325 16.4967 3.33325 15.8337V10.8337C3.33325 10.1706 3.59664 9.53473 4.06549 9.06589C4.53433 8.59705 5.17021 8.33366 5.83325 8.33366V5.83366C5.83325 4.72859 6.27224 3.66878 7.05364 2.88738C7.83504 2.10598 8.89485 1.66699 9.99992 1.66699ZM9.99992 11.667C9.57944 11.6669 9.17445 11.8257 8.86613 12.1116C8.55781 12.3975 8.36895 12.7894 8.33742 13.2087L8.33325 13.3337C8.33325 13.6633 8.431 13.9855 8.61414 14.2596C8.79727 14.5337 9.05757 14.7473 9.36211 14.8735C9.66666 14.9996 10.0018 15.0326 10.3251 14.9683C10.6484 14.904 10.9453 14.7453 11.1784 14.5122C11.4115 14.2791 11.5703 13.9821 11.6346 13.6588C11.6989 13.3355 11.6659 13.0004 11.5397 12.6959C11.4136 12.3913 11.2 12.131 10.9259 11.9479C10.6518 11.7647 10.3296 11.667 9.99992 11.667ZM9.99992 3.33366C9.33688 3.33366 8.70099 3.59705 8.23215 4.06589C7.76331 4.53473 7.49992 5.17062 7.49992 5.83366V8.33366H12.4999V5.83366C12.4999 5.17062 12.2365 4.53473 11.7677 4.06589C11.2988 3.59705 10.663 3.33366 9.99992 3.33366Z" fill="#B3B3B3"/>
</svg>
