<svg width="33" height="33" viewBox="0 0 33 33" fill="none" xmlns="http://www.w3.org/2000/svg">
<path d="M16.25 0C13.0361 0 9.89429 0.953046 7.22199 2.73862C4.54969 4.52419 2.46689 7.06209 1.23696 10.0314C0.00704087 13.0007 -0.314763 16.268 0.312247 19.4202C0.939256 22.5724 2.48692 25.4679 4.75952 27.7405C7.03212 30.0131 9.9276 31.5607 13.0798 32.1878C16.232 32.8148 19.4993 32.493 22.4686 31.263C25.4379 30.0331 27.9758 27.9503 29.7614 25.278C31.547 22.6057 32.5 19.4639 32.5 16.25C32.4955 11.9416 30.7819 7.81102 27.7355 4.76454C24.689 1.71806 20.5584 0.00454972 16.25 0ZM16.25 30C13.5305 30 10.8721 29.1936 8.61092 27.6827C6.34974 26.1718 4.58737 24.0244 3.54666 21.5119C2.50596 18.9994 2.23366 16.2347 2.76421 13.5675C3.29476 10.9003 4.60432 8.45025 6.52729 6.52728C8.45026 4.60431 10.9003 3.29475 13.5675 2.7642C16.2348 2.23366 18.9994 2.50595 21.5119 3.54666C24.0244 4.58736 26.1718 6.34973 27.6827 8.61091C29.1936 10.8721 30 13.5305 30 16.25C29.9959 19.8955 28.5459 23.3904 25.9682 25.9681C23.3904 28.5459 19.8955 29.9959 16.25 30ZM23.7875 15.1906L13.7875 8.94062C13.5983 8.82239 13.381 8.75694 13.158 8.75106C12.935 8.74517 12.7145 8.79907 12.5193 8.90717C12.3242 9.01526 12.1615 9.1736 12.0482 9.36577C11.9349 9.55794 11.8751 9.77692 11.875 10V22.5C11.8751 22.7231 11.9349 22.9421 12.0482 23.1342C12.1615 23.3264 12.3242 23.4847 12.5193 23.5928C12.7145 23.7009 12.935 23.7548 13.158 23.7489C13.381 23.7431 13.5983 23.6776 13.7875 23.5594L23.7875 17.3094C23.967 17.1969 24.115 17.0408 24.2176 16.8554C24.3202 16.6701 24.374 16.4618 24.374 16.25C24.374 16.0382 24.3202 15.8299 24.2176 15.6446C24.115 15.4592 23.967 15.3031 23.7875 15.1906ZM14.375 20.2453V12.2547L20.7672 16.25L14.375 20.2453Z" fill="white"/>
</svg>
