<svg width="22" height="22" viewBox="0 0 22 22" fill="none" xmlns="http://www.w3.org/2000/svg">
<path d="M6.7016 1.375C6.40538 1.37477 6.11701 1.47021 5.87941 1.64711C5.64181 1.82401 5.46769 2.0729 5.38297 2.35675L2.79385 11.0495C2.74806 11.2033 2.73879 11.3657 2.7668 11.5237C2.79481 11.6817 2.85931 11.831 2.95517 11.9598C3.05104 12.0885 3.17562 12.193 3.319 12.2651C3.46238 12.3372 3.62061 12.3748 3.7811 12.375H5.9591L4.1991 18.4099C3.6711 20.2194 6.0196 21.4349 7.19385 19.9609L11.6378 14.3784C11.4648 14.2226 11.2631 14.1021 11.0438 14.0236L9.58497 13.5424C9.17247 13.4049 8.84247 13.1422 8.60872 12.8109C8.37497 12.4809 8.24985 12.0959 8.24985 11.6834C8.24985 11.2695 8.3736 10.8831 8.60735 10.5531C8.8411 10.2231 9.1711 9.97563 9.5561 9.83675L11.0576 9.3555C11.2776 9.28675 11.4976 9.1355 11.6763 8.95538C11.8551 8.77525 11.9926 8.55663 12.0751 8.30913L12.5563 6.83375C12.6526 6.57708 12.7832 6.35342 12.9482 6.16275L14.0468 3.234C14.1251 3.02594 14.1517 2.80202 14.1245 2.58141C14.0972 2.36081 14.0169 2.1501 13.8904 1.96734C13.7638 1.78458 13.5949 1.63522 13.398 1.53205C13.2011 1.42889 12.9821 1.375 12.7598 1.375H6.7016ZM14.9571 7.26275L15.4356 8.73538C15.584 9.18329 15.8351 9.59028 16.1689 9.92382C16.5027 10.2573 16.9098 10.5082 17.3578 10.6562L18.8318 11.1347L18.8607 11.143C18.9743 11.183 19.0727 11.2572 19.1423 11.3555C19.2118 11.4538 19.2492 11.5712 19.2492 11.6916C19.2492 11.812 19.2118 11.9295 19.1423 12.0278C19.0727 12.126 18.9743 12.2003 18.8607 12.2403L17.3881 12.7187C16.9398 12.8666 16.5324 13.1174 16.1984 13.4509C15.8643 13.7845 15.613 14.1916 15.4645 14.6396L14.986 16.1109C14.946 16.2245 14.8717 16.3228 14.7735 16.3924C14.6752 16.462 14.5578 16.4994 14.4373 16.4994C14.3169 16.4994 14.1995 16.462 14.1012 16.3924C14.003 16.3228 13.9287 16.2245 13.8887 16.1109L13.4102 14.6396C13.2383 14.1187 12.9279 13.6543 12.5123 13.2962C12.2118 13.0353 11.8628 12.8363 11.4852 12.7105L10.0112 12.232C9.89764 12.192 9.79927 12.1178 9.72968 12.0195C9.6601 11.9212 9.62273 11.8038 9.62273 11.6834C9.62273 11.563 9.6601 11.4455 9.72968 11.3472C9.79927 11.249 9.89764 11.1747 10.0112 11.1347L11.4852 10.6562C11.9279 10.5044 12.3293 10.2518 12.6578 9.91851C12.9864 9.5852 13.2331 9.1802 13.3786 8.73538L13.8571 7.26413C13.8968 7.15007 13.971 7.05119 14.0694 6.98123C14.1679 6.91126 14.2856 6.87366 14.4064 6.87366C14.5272 6.87366 14.645 6.91126 14.7434 6.98123C14.8418 7.05119 14.916 7.15007 14.9557 7.26413M21.7001 18.1692L20.6482 17.8282C20.3283 17.7219 20.0375 17.5425 19.7988 17.3044C19.5602 17.0662 19.3802 16.7757 19.2732 16.456L18.9322 15.4041C18.9038 15.3229 18.8508 15.2525 18.7806 15.2028C18.7103 15.153 18.6264 15.1262 18.5403 15.1262C18.4543 15.1262 18.3703 15.153 18.3001 15.2028C18.2299 15.2525 18.1769 15.3229 18.1485 15.4041L17.8047 16.456C17.7001 16.7733 17.5237 17.0621 17.2893 17.3001C17.0549 17.5381 16.7687 17.7188 16.4531 17.8282L15.4012 18.1692C15.3407 18.1908 15.286 18.2261 15.2413 18.2723C15.1967 18.3185 15.1633 18.3744 15.1439 18.4357C15.1245 18.4969 15.1195 18.5618 15.1293 18.6253C15.1391 18.6889 15.1635 18.7492 15.2005 18.8017C15.25 18.8705 15.3201 18.9255 15.4012 18.953L16.4531 19.2954C16.7736 19.4023 17.0648 19.5825 17.3035 19.8216C17.5422 20.0608 17.7218 20.3524 17.8281 20.6731L18.1691 21.7236C18.1976 21.8048 18.2506 21.8752 18.3208 21.925C18.391 21.9748 18.4749 22.0015 18.561 22.0015C18.647 22.0015 18.731 21.9748 18.8012 21.925C18.8714 21.8752 18.9244 21.8048 18.9529 21.7236L19.2952 20.6731C19.4019 20.3533 19.5815 20.0626 19.82 19.8242C20.0584 19.5858 20.349 19.4062 20.6688 19.2995L21.7207 18.9585C21.8019 18.93 21.8723 18.877 21.9221 18.8068C21.9719 18.7366 21.9986 18.6527 21.9986 18.5666C21.9986 18.4806 21.9719 18.3966 21.9221 18.3264C21.8723 18.2562 21.8019 18.2032 21.7207 18.1747L21.7001 18.1692Z" fill="#E6E6E6"/>
</svg>
