<svg width="24" height="24" viewBox="0 0 24 24" fill="none" xmlns="http://www.w3.org/2000/svg">
<path d="M1.65985 13.3576L1.66735 13.3609L21.6867 21.6644C21.8551 21.7348 22.0383 21.7625 22.22 21.7448C22.4017 21.7271 22.5762 21.6647 22.7278 21.5631C22.888 21.4581 23.0196 21.315 23.1108 21.1465C23.2019 20.978 23.2498 20.7895 23.25 20.598V15.2875C23.2499 15.0256 23.1585 14.772 22.9914 14.5703C22.8244 14.3686 22.5923 14.2315 22.335 14.1826L11.4164 12.1637C11.3735 12.1556 11.3348 12.1328 11.3069 12.0991C11.2791 12.0655 11.2638 12.0232 11.2638 11.9795C11.2638 11.9359 11.2791 11.8936 11.3069 11.8599C11.3348 11.8263 11.3735 11.8034 11.4164 11.7953L22.3345 9.77639C22.5917 9.72764 22.8239 9.59072 22.991 9.38922C23.1581 9.18772 23.2497 8.93426 23.25 8.67249V3.36108C23.2501 3.17817 23.2048 2.99809 23.1182 2.83699C23.0316 2.6759 22.9063 2.53884 22.7536 2.43811C22.5699 2.31609 22.3544 2.25087 22.1339 2.25061C21.9806 2.25075 21.8289 2.2815 21.6877 2.34108L1.66875 10.5972L1.65985 10.6014C1.39038 10.7172 1.16077 10.9095 0.99943 11.1544C0.838093 11.3994 0.752104 11.6862 0.752104 11.9795C0.752104 12.2728 0.838093 12.5597 0.99943 12.8046C1.16077 13.0496 1.39038 13.2418 1.65985 13.3576Z" fill="white"/>
</svg>
