<svg width="20" height="20" viewBox="0 0 20 20" fill="none" xmlns="http://www.w3.org/2000/svg">
<path d="M9.9999 6.24966C9.25822 6.24966 8.5332 6.46959 7.91652 6.88165C7.29983 7.2937 6.81918 7.87937 6.53536 8.5646C6.25153 9.24982 6.17727 10.0038 6.32196 10.7312C6.46665 11.4587 6.82381 12.1269 7.34825 12.6513C7.8727 13.1758 8.54089 13.5329 9.26832 13.6776C9.99574 13.8223 10.7497 13.748 11.435 13.4642C12.1202 13.1804 12.7059 12.6997 13.1179 12.083C13.53 11.4664 13.7499 10.7413 13.7499 9.99966C13.7489 9.00542 13.3535 8.05219 12.6504 7.34915C11.9474 6.64611 10.9941 6.25069 9.9999 6.24966ZM9.9999 12.4997C9.50545 12.4997 9.0221 12.353 8.61098 12.0783C8.19986 11.8036 7.87942 11.4132 7.69021 10.9564C7.50099 10.4996 7.45148 9.99689 7.54794 9.51193C7.6444 9.02698 7.88251 8.58152 8.23214 8.23189C8.58177 7.88226 9.02723 7.64416 9.51218 7.5477C9.99713 7.45123 10.4998 7.50074 10.9566 7.68996C11.4134 7.87918 11.8039 8.19961 12.0786 8.61073C12.3533 9.02186 12.4999 9.50521 12.4999 9.99966C12.4999 10.6627 12.2365 11.2986 11.7677 11.7674C11.2988 12.2363 10.6629 12.4997 9.9999 12.4997ZM18.589 8.37544C18.5716 8.28743 18.5354 8.2042 18.483 8.1314C18.4305 8.05861 18.363 7.99795 18.2851 7.95357L15.9546 6.62544L15.9452 3.99888C15.9449 3.90842 15.925 3.8191 15.8868 3.73709C15.8487 3.65508 15.7932 3.58234 15.7241 3.52388C14.8788 2.8088 13.9053 2.2608 12.8554 1.90903C12.7727 1.88105 12.6851 1.87069 12.5981 1.87863C12.5112 1.88657 12.4269 1.91263 12.3507 1.95513L9.9999 3.26919L7.64678 1.95278C7.57049 1.91005 7.48609 1.88379 7.39902 1.87572C7.31195 1.86764 7.22416 1.87793 7.14131 1.90591C6.09221 2.26025 5.11982 2.81033 4.27569 3.527C4.20675 3.58538 4.15129 3.658 4.11313 3.73986C4.07496 3.82173 4.05499 3.9109 4.05459 4.00122L4.04287 6.63013L1.7124 7.95825C1.63444 8.00264 1.56694 8.06329 1.5145 8.13609C1.46206 8.20888 1.42591 8.29212 1.4085 8.38013C1.19521 9.45191 1.19521 10.5552 1.4085 11.627C1.42591 11.715 1.46206 11.7982 1.5145 11.871C1.56694 11.9438 1.63444 12.0045 1.7124 12.0489L4.04287 13.377L4.05225 16.0036C4.05253 16.094 4.07245 16.1833 4.11062 16.2654C4.14879 16.3474 4.20431 16.4201 4.27334 16.4786C5.11871 17.1936 6.09221 17.7416 7.14209 18.0934C7.22477 18.1214 7.31239 18.1318 7.39932 18.1238C7.48624 18.1159 7.57054 18.0898 7.64678 18.0473L9.9999 16.7301L12.353 18.0465C12.4462 18.0984 12.5511 18.1253 12.6577 18.1247C12.726 18.1246 12.7938 18.1136 12.8585 18.0918C13.9075 17.738 14.8799 17.1884 15.7241 16.4723C15.7931 16.4139 15.8485 16.3413 15.8867 16.2595C15.9249 16.1776 15.9448 16.0884 15.9452 15.9981L15.9569 13.3692L18.2874 12.0411C18.3654 11.9967 18.4329 11.936 18.4853 11.8632C18.5378 11.7904 18.5739 11.7072 18.5913 11.6192C18.8034 10.5483 18.8026 9.44606 18.589 8.37544ZM17.4171 11.1028L15.1851 12.3723C15.0873 12.4279 15.0063 12.5089 14.9507 12.6067C14.9054 12.6848 14.8577 12.7676 14.8093 12.8458C14.7473 12.9443 14.7142 13.0583 14.714 13.1747L14.7022 15.6942C14.1023 16.1653 13.4339 16.5421 12.7202 16.8114L10.4687 15.5567C10.3752 15.505 10.27 15.4781 10.1632 15.4786H10.1483C10.0538 15.4786 9.9585 15.4786 9.86397 15.4786C9.75216 15.4758 9.64162 15.5027 9.54365 15.5567L7.29053 16.8145C6.5753 16.5473 5.90508 16.1724 5.30303 15.7028L5.29444 13.1872C5.29405 13.0705 5.26103 12.9563 5.19912 12.8575C5.15069 12.7793 5.10303 12.7012 5.0585 12.6184C5.00328 12.5191 4.92232 12.4365 4.82412 12.3793L2.58975 11.1067C2.47412 10.3753 2.47412 9.63027 2.58975 8.89888L4.81787 7.627C4.91567 7.5714 4.99664 7.49042 5.05225 7.39263C5.09756 7.3145 5.14522 7.23169 5.19365 7.15357C5.25566 7.05505 5.28869 6.94107 5.28897 6.82466L5.30069 4.30513C5.90063 3.83399 6.56901 3.45725 7.28272 3.18794L9.53115 4.44263C9.62901 4.49687 9.73963 4.52385 9.85147 4.52075C9.946 4.52075 10.0413 4.52075 10.1358 4.52075C10.2476 4.52355 10.3582 4.49659 10.4562 4.44263L12.7093 3.18482C13.4245 3.45206 14.0947 3.82695 14.6968 4.29653L14.7054 6.81216C14.7058 6.9288 14.7388 7.043 14.8007 7.14185C14.8491 7.21997 14.8968 7.2981 14.9413 7.38091C14.9965 7.48022 15.0775 7.5628 15.1757 7.61997L17.4101 8.89263C17.5272 9.62459 17.5285 10.3704 17.414 11.1028H17.4171Z" fill="white"/>
</svg>
