<svg width="22" height="22" viewBox="0 0 22 22" fill="none" xmlns="http://www.w3.org/2000/svg">
<path d="M12.0311 1.03125V2.75H13.3855C13.8035 2.75 14.2146 2.86 14.5776 3.06763L16.3514 4.07963C16.4045 4.10988 16.4614 4.125 16.5219 4.125H19.5936C19.8671 4.125 20.1294 4.23365 20.3228 4.42705C20.5162 4.62044 20.6249 4.88275 20.6249 5.15625C20.6249 5.42975 20.5162 5.69206 20.3228 5.88545C20.1294 6.07885 19.8671 6.1875 19.5936 6.1875H19.0065L21.9091 12.639C21.9949 12.8299 22.0206 13.0423 21.9828 13.2481C21.9449 13.4539 21.8454 13.6434 21.6974 13.7912L20.9686 13.0625L21.696 13.7926L21.6946 13.7954L21.6919 13.7981L21.6836 13.8064L21.6754 13.8132L21.6616 13.827L21.5997 13.882C21.3092 14.1249 20.9947 14.3312 20.6565 14.5007C20.0144 14.8225 19.0849 15.125 17.8749 15.125C16.9117 15.1363 15.9592 14.9225 15.0932 14.5007C14.7557 14.3322 14.4391 14.1245 14.15 13.882L14.0881 13.827L14.0661 13.8064L14.0579 13.7981L14.0524 13.7926V13.7912C13.9043 13.6434 13.8048 13.4539 13.767 13.2481C13.7292 13.0423 13.7548 12.8299 13.8406 12.639L16.7446 6.1875H16.5219C16.1025 6.1875 15.6914 6.07888 15.3284 5.86987L13.5546 4.85787C13.5027 4.82817 13.4439 4.81253 13.3841 4.8125H12.0311V17.875H15.4686C15.7421 17.875 16.0044 17.9837 16.1978 18.177C16.3912 18.3704 16.4999 18.6327 16.4999 18.9062C16.4999 19.1798 16.3912 19.4421 16.1978 19.6355C16.0044 19.8288 15.7421 19.9375 15.4686 19.9375H6.53112C6.25762 19.9375 5.99531 19.8288 5.80192 19.6355C5.60852 19.4421 5.49987 19.1798 5.49987 18.9062C5.49987 18.6327 5.60852 18.3704 5.80192 18.177C5.99531 17.9837 6.25762 17.875 6.53112 17.875H9.96862V4.8125H8.61562C8.55581 4.81253 8.49704 4.82817 8.44512 4.85787L6.67275 5.87125C6.30837 6.0775 5.89725 6.1875 5.47787 6.1875H5.25512L8.15912 12.639C8.2449 12.8299 8.27058 13.0423 8.23276 13.2481C8.19494 13.4539 8.0954 13.6434 7.94737 13.7912L7.21862 13.0625L7.946 13.7926L7.94462 13.7954L7.94187 13.7981L7.93362 13.8064L7.91162 13.827L7.84975 13.882C7.55916 14.1249 7.24475 14.3312 6.9065 14.5007C6.26437 14.8225 5.33487 15.125 4.12487 15.125C3.16171 15.1363 2.20923 14.9225 1.34325 14.5007C1.00566 14.3322 0.689069 14.1245 0.399997 13.882L0.338122 13.827L0.316122 13.8064L0.307872 13.7981L0.302372 13.7926V13.7912C0.154342 13.6434 0.0548065 13.4539 0.0169852 13.2481C-0.020836 13.0423 0.00484639 12.8299 0.0906216 12.639L2.99462 6.1875H2.40612C2.13262 6.1875 1.87031 6.07885 1.67692 5.88545C1.48352 5.69206 1.37487 5.42975 1.37487 5.15625C1.37487 4.88275 1.48352 4.62044 1.67692 4.42705C1.87031 4.23365 2.13262 4.125 2.40612 4.125H5.47787C5.53815 4.12521 5.59742 4.10956 5.64975 4.07963L7.42075 3.06625C7.78512 2.86 8.19625 2.75 8.61562 2.75H9.96862V1.03125C9.96862 0.757746 10.0773 0.495443 10.2707 0.302046C10.4641 0.108649 10.7264 0 10.9999 0C11.2734 0 11.5357 0.108649 11.7291 0.302046C11.9225 0.495443 12.0311 0.757746 12.0311 1.03125ZM16.0805 12.6871C16.4724 12.8728 17.0677 13.0625 17.8749 13.0625C18.682 13.0625 19.2774 12.8728 19.6692 12.6871L17.8749 8.69963L16.0805 12.6871ZM2.3305 12.6871C2.72237 12.8728 3.31775 13.0625 4.12487 13.0625C4.932 13.0625 5.52737 12.8728 5.91925 12.6871L4.12487 8.69963L2.3305 12.6871Z" fill="white"/>
</svg>
